<?xml version="1.0" standalone="no"?>
<!DOCTYPE svg PUBLIC "-//W3C//DTD SVG 20010904//EN"
 "http://www.w3.org/TR/2001/REC-SVG-20010904/DTD/svg10.dtd">
<svg version="1.0" xmlns="http://www.w3.org/2000/svg"
 width="500.000000pt" height="154.000000pt" viewBox="0 0 500.000000 154.000000"
 preserveAspectRatio="xMidYMid meet">

<g transform="translate(0.000000,154.000000) scale(0.100000,-0.100000)"
fill="#000000" stroke="none">
<path d="M2557 1429 c-16 -27 -31 -49 -35 -49 -4 0 -83 16 -176 35 -93 20
-170 34 -171 33 -1 -2 26 -147 61 -323 34 -176 63 -313 63 -305 0 8 -8 96 -18
195 -11 99 -17 182 -15 184 3 3 187 19 237 20 14 1 17 10 17 47 0 31 12 73 35
127 19 44 34 82 32 83 -1 2 -15 -19 -30 -47z"/>
<path d="M2602 1430 c0 -14 2 -19 5 -12 2 6 2 18 0 25 -3 6 -5 1 -5 -13z"/>
<path d="M2705 1415 c10 -16 24 -39 32 -50 7 -11 13 -34 13 -52 0 -31 2 -33
35 -33 27 0 35 4 35 18 0 9 3 27 6 38 5 18 0 22 -32 29 -25 4 -50 19 -73 43
-32 34 -33 35 -16 7z"/>
<path d="M2660 1407 c0 -1 9 -33 20 -71 14 -51 18 -85 13 -123 l-6 -54 44 7
c24 4 45 7 46 8 1 1 5 21 9 44 l7 42 -36 0 c-34 0 -35 1 -62 75 -23 62 -35 87
-35 72z"/>
<path d="M2570 1296 l-23 -104 -36 -6 c-20 -3 -58 -6 -85 -6 l-49 0 6 -92 c4
-64 2 -110 -9 -156 -22 -96 -12 -96 15 -1 13 46 29 89 35 95 6 6 41 19 78 29
63 17 68 20 73 49 10 64 28 287 23 291 -3 3 -15 -42 -28 -99z"/>
<path d="M2702 1140 c-29 -4 -55 -10 -56 -11 -6 -7 -13 -119 -7 -119 2 0 31 7
63 16 49 14 58 20 58 39 0 12 3 37 6 54 4 17 3 30 -2 30 -5 -1 -33 -5 -62 -9z"/>
<path d="M2538 1032 l-68 -16 0 -54 c0 -42 -6 -62 -28 -95 -60 -89 -54 -92 13
-6 36 45 61 67 97 82 40 16 48 24 49 46 0 14 2 34 4 44 2 9 3 16 2 16 -1 -1
-32 -9 -69 -17z"/>
<path d="M2750 519 c-19 -6 -41 -16 -49 -22 -26 -22 -51 -91 -51 -144 0 -62
18 -79 99 -92 59 -9 66 -14 57 -37 -5 -14 -19 -16 -93 -13 l-86 4 -15 -43 c-8
-24 -11 -46 -7 -50 3 -4 54 -8 113 -10 88 -3 113 0 142 15 58 30 97 136 74
198 -9 22 -50 42 -107 50 -38 6 -47 11 -47 27 0 18 7 19 78 17 65 -2 78 0 80
14 2 10 13 18 25 18 18 1 19 2 4 6 -11 3 -16 10 -13 20 3 8 6 19 6 25 0 10 90
6 160 -9 18 -3 30 -1 30 5 0 18 -347 36 -400 21z"/>
<path d="M2101 516 c2 -2 48 -7 102 -11 68 -5 97 -4 97 4 0 7 -35 11 -102 11
-56 0 -99 -2 -97 -4z"/>
<path d="M2326 493 c-14 -69 -56 -333 -56 -352 0 -19 6 -21 55 -21 30 0 55 1
56 3 0 1 10 60 22 132 l23 130 34 6 35 6 -33 2 -34 1 7 43 c3 23 9 50 11 60 5
15 -2 17 -55 17 -57 0 -60 -1 -65 -27z"/>
<path d="M2594 508 c47 -7 72 -6 79 1 8 8 -12 11 -68 10 l-80 -2 69 -9z"/>
<path d="M1690 500 l-65 -7 62 -1 c34 -1 68 -5 77 -8 11 -4 16 -1 16 10 0 9
-6 15 -12 14 -7 -1 -42 -4 -78 -8z"/>
<path d="M1805 488 c-13 -61 -56 -380 -52 -385 3 -2 30 -2 60 2 l55 7 6 59 c6
47 11 59 25 59 12 0 21 -15 32 -57 l15 -58 68 -3 c51 -2 66 0 60 9 -5 9 13 10
79 5 57 -5 87 -4 87 3 0 6 -36 11 -86 13 l-86 3 -19 50 c-14 38 -16 51 -6 57
6 5 58 6 115 2 72 -5 102 -3 102 5 0 7 -32 11 -95 11 l-95 0 12 26 c12 26 12
26 100 19 60 -4 88 -3 88 4 0 7 -31 11 -84 11 l-83 0 5 49 c10 113 -15 131
-182 131 -112 0 -116 -1 -121 -22z m175 -113 c0 -29 -5 -37 -26 -45 -40 -15
-54 -12 -54 13 0 52 11 67 46 67 32 0 34 -2 34 -35z"/>
<path d="M3176 493 c-2 -10 -7 -33 -11 -50 l-7 -33 47 0 c39 0 46 -3 41 -17
-8 -27 -56 -262 -56 -273 0 -6 26 -10 58 -10 l57 0 30 147 30 148 47 3 c47 3
47 3 55 45 l9 42 -41 7 c-22 3 -88 7 -147 7 -93 1 -107 -1 -112 -16z"/>
<path d="M3571 496 c2 -2 27 -6 54 -10 36 -5 46 -4 35 3 -13 10 -99 16 -89 7z"/>
<path d="M3751 490 c-55 -13 -81 -32 -108 -77 -54 -92 -71 -238 -33 -286 34
-43 149 -62 217 -36 60 22 116 106 129 191 4 24 10 49 14 57 4 8 4 27 0 43 -8
26 -6 28 18 29 25 2 25 2 4 6 -13 3 -36 18 -50 34 -20 21 -42 32 -81 39 -60
11 -62 11 -110 0z m99 -112 c-1 -7 -9 -49 -20 -93 -19 -84 -36 -105 -79 -105
-47 0 -51 9 -35 80 30 131 29 130 85 130 33 0 49 -4 49 -12z"/>
<path d="M1304 478 c-8 -12 -53 -330 -54 -376 l0 -23 118 7 c133 7 174 21 193
66 l12 30 79 -7 c54 -5 78 -4 78 4 0 7 -27 11 -75 11 -74 0 -75 0 -75 26 l0
27 80 -6 c45 -3 80 -1 80 4 0 5 -38 9 -85 9 -68 0 -85 3 -85 15 0 8 -11 20
-24 27 l-25 13 30 33 30 33 89 -7 c64 -5 90 -3 90 5 0 7 -30 11 -90 11 l-90 0
0 27 0 26 95 -6 c59 -4 95 -3 95 3 0 6 -39 10 -93 10 -86 0 -93 1 -102 23 -10
21 -16 22 -137 25 -93 2 -129 -1 -134 -10z m164 -91 c5 -25 -16 -47 -44 -47
-20 0 -24 5 -24 28 0 16 3 32 7 36 14 13 58 1 61 -17z m-11 -153 c10 -26 -11
-49 -46 -52 -30 -3 -31 -2 -31 32 0 34 2 36 35 36 24 0 38 -5 42 -16z"/>
<path d="M1150 470 c80 -11 120 -11 120 0 0 6 -35 9 -87 9 -85 -2 -86 -2 -33
-9z"/>
<path d="M4013 473 c9 -2 23 -2 30 0 6 3 -1 5 -18 5 -16 0 -22 -2 -12 -5z"/>
<path d="M911 461 c-51 -4 -77 -11 -83 -21 -13 -22 -139 -392 -135 -396 2 -2
30 0 62 4 56 7 60 9 69 40 9 31 11 32 62 32 51 0 53 -1 59 -31 l7 -31 57 7
c31 4 59 12 62 17 4 7 33 8 78 3 49 -5 71 -4 71 4 0 7 -27 11 -74 11 -73 0
-86 6 -86 41 0 5 38 9 85 9 47 0 85 4 85 10 0 5 -33 7 -84 3 l-84 -6 -6 29
c-3 16 -8 52 -11 79 -3 28 -7 59 -9 70 -2 12 -7 46 -11 78 -6 44 -11 57 -24
55 -9 -1 -49 -4 -90 -7z m9 -181 c0 -57 -1 -60 -25 -60 -14 0 -25 3 -25 7 0
19 35 113 42 113 4 0 8 -27 8 -60z"/>
<path d="M4085 460 c45 -11 95 -11 95 0 0 6 -27 9 -62 9 -50 -1 -57 -3 -33 -9z"/>
<path d="M2210 450 l-45 -7 47 -1 c25 -1 53 -5 62 -8 11 -4 16 -1 16 10 0 17
-7 17 -80 6z"/>
<path d="M2510 450 c80 -12 130 -11 130 0 0 6 -37 9 -92 9 -87 -2 -89 -2 -38
-9z"/>
<path d="M4155 270 c-26 -105 -46 -193 -43 -195 3 -3 29 -6 58 -8 l54 -2 14
58 c19 79 42 75 57 -8 l10 -60 63 -3 c67 -3 67 -3 53 46 -7 23 -6 32 2 32 8 0
9 3 1 8 -33 22 -16 63 25 57 9 -1 10 0 4 2 -18 6 14 53 36 53 11 0 12 3 4 8
-19 12 -4 52 21 53 17 1 17 2 4 6 -13 3 -18 14 -18 38 0 21 -9 44 -23 61 -20
22 -34 27 -102 35 -44 4 -101 8 -126 8 l-46 1 -48 -190z m199 77 c15 -11 17
-19 9 -43 -8 -24 -16 -30 -48 -32 l-37 -3 7 38 c4 21 9 41 11 45 8 12 38 9 58
-5z"/>
<path d="M3050 439 c63 -11 90 -11 90 1 0 6 -28 9 -67 9 -67 -1 -67 -2 -23
-10z"/>
<path d="M458 425 c-58 -5 -109 -13 -113 -16 -6 -7 -35 -307 -35 -368 l0 -34
51 6 c29 4 54 9 58 12 3 3 7 37 9 75 4 66 5 68 34 74 17 3 41 6 54 6 20 0 24
5 24 30 l0 30 95 0 c52 0 95 4 95 9 0 6 -37 7 -90 4 -67 -4 -90 -3 -90 6 0 9
-16 12 -52 10 -37 -2 -53 1 -52 9 1 7 2 21 3 32 1 17 8 20 50 20 53 0 69 12
77 57 2 15 6 33 8 39 2 6 -1 10 -7 10 -7 0 -60 -5 -119 -11z"/>
<path d="M3525 429 c58 -12 104 -11 85 1 -8 5 -40 9 -70 9 l-55 -1 40 -9z"/>
<path d="M4612 422 c43 -8 81 -12 85 -9 11 12 1 14 -82 20 l-80 5 77 -16z"/>
<path d="M1145 410 c-14 -6 1 -9 48 -9 38 -1 67 3 67 9 0 12 -87 12 -115 0z"/>
<path d="M4673 228 c-29 -106 -51 -194 -49 -195 2 -2 62 -9 134 -16 l131 -13
11 44 c6 25 9 46 7 48 -2 3 -34 7 -71 11 -37 3 -68 9 -70 12 -2 3 0 16 5 29 8
22 12 23 69 16 65 -7 69 -5 73 52 2 28 1 29 -53 34 -48 4 -55 8 -52 25 6 40 8
41 76 35 l67 -6 20 45 c10 24 18 45 17 46 -4 3 -218 25 -243 25 -17 0 -27 -24
-72 -192z"/>
<path d="M185 400 c-57 -6 -56 -7 33 -8 56 -1 92 2 92 8 0 11 -29 11 -125 0z"/>
<path d="M4090 395 c68 -14 76 -13 65 4 -3 6 -34 10 -68 10 l-62 -1 65 -13z"/>
<path d="M670 380 l-75 -6 87 -2 c49 -1 90 2 93 8 3 6 -2 9 -12 8 -10 -1 -52
-4 -93 -8z"/>
<path d="M2131 386 c11 -9 149 -15 149 -6 0 6 -32 10 -77 10 -42 0 -74 -2 -72
-4z"/>
<path d="M2501 386 c10 -8 119 -14 119 -5 0 5 -28 9 -62 9 -34 0 -59 -2 -57
-4z"/>
<path d="M3060 384 c8 -2 45 -7 83 -12 53 -7 67 -6 67 5 0 10 -20 13 -82 12
-46 -1 -76 -3 -68 -5z"/>
<path d="M3515 366 c39 -8 72 -12 74 -10 11 10 -14 17 -76 20 l-68 3 70 -13z"/>
<path d="M4590 360 c47 -10 87 -16 89 -14 13 12 -22 22 -94 27 l-80 5 85 -18z"/>
<path d="M1145 350 l-80 -6 92 -4 c69 -4 94 -2 98 8 2 7 -3 11 -13 10 -9 -1
-53 -4 -97 -8z"/>
<path d="M215 340 l-60 -7 78 -1 c46 -1 77 2 77 8 0 6 -8 9 -17 8 -10 -1 -45
-4 -78 -8z"/>
<path d="M4065 336 c39 -8 72 -12 74 -10 12 11 -16 18 -77 21 l-67 2 70 -13z"/>
<path d="M2481 326 c11 -10 139 -16 139 -6 0 6 -29 10 -72 10 -39 0 -69 -2
-67 -4z"/>
<path d="M3105 315 c83 -13 106 -13 94 0 -3 2 -45 7 -95 9 l-89 5 90 -14z"/>
<path d="M640 310 c0 -5 25 -10 55 -10 30 0 55 5 55 10 0 6 -25 10 -55 10 -30
0 -55 -4 -55 -10z"/>
<path d="M1655 310 c-37 -6 -35 -7 28 -11 49 -3 67 -1 67 9 0 13 -28 14 -95 2z"/>
<path d="M3485 305 c71 -12 96 -13 84 -1 -2 2 -40 7 -84 10 l-80 5 80 -14z"/>
<path d="M4595 295 c61 -13 81 -11 55 5 -8 6 -37 9 -65 9 l-50 -1 60 -13z"/>
<path d="M1149 279 c56 -6 88 -6 95 1 7 7 -21 10 -84 9 l-95 -2 84 -8z"/>
<path d="M4049 274 c66 -13 93 -13 80 1 -3 2 -39 7 -80 10 l-74 5 74 -16z"/>
<path d="M160 270 c-36 -6 -28 -7 48 -8 56 -1 92 2 92 8 0 11 -69 11 -140 0z"/>
<path d="M2501 266 c2 -2 42 -6 89 -10 58 -4 80 -3 70 4 -13 9 -169 15 -159 6z"/>
<path d="M3003 263 c9 -2 23 -2 30 0 6 3 -1 5 -18 5 -16 0 -22 -2 -12 -5z"/>
<path d="M3061 256 c11 -10 129 -16 129 -6 0 6 -27 10 -67 10 -36 0 -64 -2
-62 -4z"/>
<path d="M3403 253 c9 -2 23 -2 30 0 6 3 -1 5 -18 5 -16 0 -22 -2 -12 -5z"/>
<path d="M3451 246 c11 -10 109 -16 109 -6 0 6 -24 10 -57 10 -31 0 -54 -2
-52 -4z"/>
<path d="M4579 235 c35 -8 67 -13 69 -10 11 11 -9 17 -70 21 l-63 4 64 -15z"/>
<path d="M1120 220 c0 -6 27 -10 60 -10 33 0 60 4 60 10 0 6 -27 10 -60 10
-33 0 -60 -4 -60 -10z"/>
<path d="M4029 214 c40 -8 76 -13 79 -10 10 11 -2 14 -78 19 l-75 6 74 -15z"/>
<path d="M175 210 c-57 -6 -56 -7 33 -8 56 -1 92 2 92 8 0 11 -29 11 -125 0z"/>
<path d="M2503 197 c57 -7 82 -6 90 2 8 8 -12 11 -78 10 l-90 -2 78 -10z"/>
<path d="M2111 196 c9 -8 139 -13 139 -5 0 5 -32 9 -72 9 -39 0 -69 -2 -67 -4z"/>
<path d="M3075 190 c72 -12 105 -11 105 0 0 6 -32 9 -77 9 -76 -2 -76 -2 -28
-9z"/>
<path d="M605 180 c45 -11 105 -11 105 0 0 6 -28 10 -67 9 -53 -1 -61 -3 -38
-9z"/>
<path d="M3475 179 c55 -11 85 -11 85 1 0 6 -27 10 -62 9 -60 -1 -61 -2 -23
-10z"/>
<path d="M4553 174 c38 -8 71 -13 75 -10 11 12 -6 17 -74 21 l-69 5 68 -16z"/>
<path d="M3990 155 c78 -17 110 -18 110 -5 0 6 -15 10 -32 10 -18 0 -58 2 -88
5 l-55 4 65 -14z"/>
<path d="M205 150 l-60 -7 73 -1 c42 -1 72 2 72 8 0 6 -6 9 -12 8 -7 -1 -40
-4 -73 -8z"/>
<path d="M2471 136 c11 -9 99 -15 99 -6 0 6 -23 10 -52 10 -28 0 -49 -2 -47
-4z"/>
<path d="M3010 134 c8 -2 45 -7 83 -12 53 -7 67 -6 67 5 0 10 -20 13 -82 12
-46 -1 -76 -3 -68 -5z"/>
<path d="M560 120 c-63 -6 -62 -7 33 -8 59 -1 97 2 97 8 0 11 -25 11 -130 0z"/>
<path d="M1620 120 c-19 -6 -9 -8 38 -9 35 -1 62 3 62 9 0 12 -64 12 -100 0z"/>
<path d="M3473 123 c9 -2 23 -2 30 0 6 3 -1 5 -18 5 -16 0 -22 -2 -12 -5z"/>
<path d="M4530 114 c35 -8 71 -11 80 -8 17 8 -55 23 -110 22 -27 0 -19 -3 30
-14z"/>
<path d="M3533 113 c9 -2 25 -2 35 0 9 3 1 5 -18 5 -19 0 -27 -2 -17 -5z"/>
<path d="M3913 103 c9 -2 23 -2 30 0 6 3 -1 5 -18 5 -16 0 -22 -2 -12 -5z"/>
<path d="M3965 95 c6 -2 34 -8 63 -13 42 -7 52 -7 52 4 0 11 -16 14 -62 13
-35 0 -58 -2 -53 -4z"/>
<path d="M135 80 c-42 -6 -34 -7 47 -8 56 -1 99 2 103 8 7 11 -69 11 -150 0z"/>
<path d="M4512 53 c43 -9 81 -13 85 -10 11 12 0 14 -82 20 l-80 6 77 -16z"/>
<path d="M588 48 c45 -7 67 -7 75 1 8 8 -9 11 -63 10 l-75 -2 63 -9z"/>
<path d="M165 20 c-59 -7 -59 -7 28 -8 52 -1 87 2 87 8 0 11 -19 11 -115 0z"/>
</g>
</svg>
